# xmcd
#
# Track frame offsets: 
#        150
#        16320
#        30608
#        46370
#        62440
#        76030
#        91105
#        109302
#        112552
#        130305
#        144983
#        159995
#        180953
#
# Disc length: 2693 seconds
#
# Revision: 2
# Processed by: cddbd v1.5.2PL0 Copyright (c) Steve Scherf et al.
# Submitted via: ExactAudioCopyFreeDBPlugin 1.0
#
DISCID=8c0a830d
DTITLE=YUI - HOW CRAZY YOUR LOVE
DYEAR=2011
DGENRE=JPop
TTITLE0=Hello
TTITLE1=Separation
TTITLE2=Get Back Home
TTITLE3=Lock On
TTITLE4=U-niform
TTITLE5=Cooking
TTITLE6=Rain
TTITLE7=Good night
TTITLE8=YOU
TTITLE9=It's My Life
TTITLE10=No Reason
TTITLE11=Nobody Knows
TTITLE12=Green a.live
EXTD=
EXTT0=
EXTT1=
EXTT2=
EXTT3=
EXTT4=
EXTT5=
EXTT6=
EXTT7=
EXTT8=
EXTT9=
EXTT10=
EXTT11=
EXTT12=
PLAYORDER=
